<?xml version="1.0" standalone="no"?>
<!DOCTYPE svg PUBLIC "-//W3C//DTD SVG 20010904//EN"
 "http://www.w3.org/TR/2001/REC-SVG-20010904/DTD/svg10.dtd">
<svg version="1.0" xmlns="http://www.w3.org/2000/svg"
 width="2050.000000pt" height="1082.000000pt" viewBox="0 0 2050.000000 1082.000000"
 preserveAspectRatio="xMidYMid meet">

<g transform="translate(0.000000,1082.000000) scale(0.100000,-0.100000)"
fill="#000000" stroke="none">
<path d="M10800 10809 c-133 -11 -348 -50 -464 -84 -440 -128 -868 -397 -1191
-750 -466 -511 -786 -1140 -994 -1957 l-48 -187 -48 65 c-147 201 -385 399
-622 518 -273 138 -525 195 -859 196 -378 0 -649 -51 -899 -170 -44 -21 -81
-37 -82 -36 -2 1 60 205 136 452 l138 449 1328 5 1328 5 108 505 c60 278 122
567 138 643 l29 137 -1962 0 -1962 0 -577 -1847 c-318 -1017 -578 -1851 -577
-1855 0 -5 308 -8 684 -8 l685 0 60 84 c185 256 403 389 696 425 248 30 496
-4 680 -94 217 -106 336 -270 397 -550 8 -39 13 -133 13 -270 0 -185 -3 -221
-23 -300 -74 -292 -224 -521 -446 -680 -85 -61 -256 -141 -349 -165 -272 -69
-597 -38 -832 79 -159 79 -254 172 -315 306 -44 97 -61 179 -67 333 l-6 142
-728 0 c-400 0 -730 -3 -732 -7 -8 -15 12 -323 28 -440 37 -269 100 -484 204
-698 88 -179 169 -293 306 -430 324 -324 769 -515 1370 -587 165 -20 645 -16
810 5 571 76 1061 282 1451 611 207 174 393 402 526 644 l40 73 52 -118 c56
-128 108 -222 196 -353 204 -303 519 -544 877 -670 l105 -37 -58 -16 c-328
-91 -3810 -1005 -3927 -1031 -454 -102 -827 -147 -1221 -147 -579 0 -1000 108
-1326 339 -122 86 -317 281 -402 402 -81 113 -185 319 -227 448 -218 660 -69
1546 423 2529 52 104 120 234 151 288 107 187 103 176 48 119 -77 -81 -474
-522 -664 -739 -1081 -1233 -1665 -2143 -1979 -3085 -151 -452 -213 -796 -214
-1180 0 -288 28 -479 105 -713 97 -296 264 -555 516 -798 343 -330 770 -516
1345 -585 175 -22 590 -24 783 -5 736 72 1547 289 2465 658 310 125 15240
6426 15236 6431 -2 2 -1922 -503 -4265 -1122 -2344 -619 -4265 -1126 -4269
-1126 -3 0 39 46 94 103 212 215 364 420 536 719 367 640 584 1372 660 2228
15 177 15 654 0 800 -88 823 -395 1405 -932 1765 -182 122 -452 234 -680 284
-226 48 -574 70 -800 50z m332 -1304 c40 -8 111 -34 158 -57 68 -33 102 -59
171 -127 71 -71 94 -102 133 -181 83 -169 116 -350 116 -635 -1 -634 -156
-1454 -387 -2045 -63 -159 -193 -414 -273 -534 -196 -291 -428 -472 -664 -515
-85 -16 -280 -14 -373 4 -110 21 -229 83 -307 160 -163 162 -230 401 -228 815
2 657 158 1520 377 2081 223 573 536 939 876 1028 94 25 294 28 401 6z"/>
</g>
</svg>
